<?xml version="1.0" standalone="no"?>
<!DOCTYPE svg PUBLIC "-//W3C//DTD SVG 20010904//EN"
 "http://www.w3.org/TR/2001/REC-SVG-20010904/DTD/svg10.dtd">
<svg version="1.0" xmlns="http://www.w3.org/2000/svg"
 width="192.000000pt" height="192.000000pt" viewBox="0 0 192.000000 192.000000"
 preserveAspectRatio="xMidYMid meet">
<metadata>
Created by potrace 1.14, written by Peter Selinger 2001-2017
</metadata>
<g transform="translate(0.000000,192.000000) scale(0.100000,-0.100000)"
fill="#000000" stroke="none">
<path d="M331 1905 c-171 -38 -267 -129 -310 -296 -18 -69 -19 -115 -19 -644
0 -614 2 -647 53 -750 32 -67 92 -127 158 -160 105 -51 137 -53 749 -54 533
-1 571 0 644 19 151 39 227 106 285 255 23 58 28 171 28 690 -1 603 -3 637
-54 740 -50 103 -144 171 -276 199 -94 21 -1166 21 -1258 1z"/>
</g>
</svg>
